<svg xmlns="http://www.w3.org/2000/svg" width="725.735" height="264.95" viewBox="0 0 725.735 264.95">
  <title>Full Logo</title>
  <g>
    <g>
      <path d="M40.425,98.235A40.223,40.223,0,0,0,5.078,119.043V77.882H0v100.2H5.078v-2.705a17.12,17.12,0,0,1,4.516-.519c3.35,0,7.854.843,12.623,1.735,5.749,1.075,12.265,2.295,18.208,2.295a40.325,40.325,0,0,0,0-80.65Zm0,75.572c-5.683,0-11.328-1.094-16.786-2.153-4.985-.966-9.693-1.879-14.045-1.879a26.105,26.105,0,0,0-4.516.355V137.049a35.262,35.262,0,1,1,35.347,36.758Zm-37.08,2.539h0Z" fill="#404041"/>
      <path d="M161.559,147.055l-1.607-.4-.475,1.586a35.289,35.289,0,0,1-69.154-9.779c0-19.05,16.094-35.145,35.144-35.145,11,0,17.436,4.546,23.661,8.942a69.7,69.7,0,0,0,6.273,4.108l-30.76,30.949-1.217,1.225,1.22,1.222,1.208,1.21,1.229,1.231,1.227-1.234,34.461-34.662,1.927-1.939-2.575-.916c-4.029-1.434-7.322-3.685-10.809-6.068-6.579-4.5-13.381-9.147-25.845-9.147-21.8,0-40.222,18.42-40.222,40.224s18.512,40.224,40.425,40.224a40.383,40.383,0,0,0,38.745-29.066l.491-1.721-1.736-.436Z" fill="#404041"/>
      <path d="M247,147.46l-1.611-.4-1.607-.4-.475,1.587a35.289,35.289,0,0,1-69.154-9.78c0-19.05,16.094-35.144,35.144-35.144,11,0,17.435,4.545,23.661,8.941a69.48,69.48,0,0,0,6.273,4.108l-30.76,30.949-1.217,1.225,1.22,1.222,1.208,1.21,1.229,1.231,1.227-1.234L246.6,116.305l1.927-1.938-2.575-.917c-4.029-1.434-7.323-3.685-10.809-6.068-6.579-4.5-13.381-9.147-25.845-9.147-21.8,0-40.222,18.42-40.222,40.224s18.512,40.224,40.425,40.224a40.381,40.381,0,0,0,38.744-29.066l.492-1.721Z" fill="#404041"/>
    </g>
    <g>
      <path d="M524.138,98.465a40.223,40.223,0,0,0-35.348,20.808V78.112h-5.078v100.2h5.078v-2.7a17.115,17.115,0,0,1,4.516-.519c3.35,0,7.854.843,12.623,1.735,5.749,1.075,12.264,2.3,18.209,2.3a40.325,40.325,0,0,0,0-80.65Zm0,75.572c-5.685,0-11.329-1.094-16.788-2.152-4.984-.966-9.692-1.878-14.044-1.878a26.086,26.086,0,0,0-4.516.354V137.279a35.262,35.262,0,1,1,35.348,36.758Z" fill="#404041"/>
      <path d="M624.56,165.567a28.881,28.881,0,0,0,4.417-15.4v-1.733H624.21v1.733a24.83,24.83,0,0,1-2.943,11.709L588.74,125.943c-2.986-3.3-4.26-6.159-4.26-9.554a14.182,14.182,0,1,1,28.363,0v1.733h4.764v-1.733a18.745,18.745,0,0,0-18.946-18.948,18.968,18.968,0,0,0-18.946,18.948,16.749,16.749,0,0,0,3.126,9.8,29.284,29.284,0,0,0,16.794,53.313,28.96,28.96,0,0,0,22-9.965l7.9,8.593.515.561h6.683l-2.7-2.912Zm-24.925,9.174a24.6,24.6,0,0,1-24.574-24.574,25.158,25.158,0,0,1,10.658-20.456l32.76,36.283A24.689,24.689,0,0,1,599.635,174.741Z" fill="#404041"/>
      <path d="M685.509,98.465a40.216,40.216,0,0,0-35.344,20.806V78.112h-5.081v100.2h5.081v-2.7a17.083,17.083,0,0,1,4.512-.519c3.351,0,7.855.843,12.624,1.735,5.749,1.075,12.264,2.3,18.208,2.3a40.325,40.325,0,0,0,0-80.65Zm0,75.572c-5.684,0-11.328-1.094-16.787-2.152-4.984-.966-9.692-1.878-14.045-1.878a26.038,26.038,0,0,0-4.512.354V137.279a35.26,35.26,0,1,1,35.344,36.758Z" fill="#404041"/>
    </g>
    <g>
      <polygon points="437.964 79.835 416.852 43.268 314.711 43.268 293.599 79.835 437.964 79.835" fill="#ffc800"/>
      <polygon points="464.974 126.617 443.861 90.05 287.702 90.05 266.59 126.617 464.974 126.617" fill="#ffc800"/>
      <polygon points="293.599 183.613 314.711 220.18 416.852 220.18 437.964 183.613 293.599 183.613" fill="#ffc800"/>
      <polygon points="464.974 136.831 266.59 136.831 287.702 173.399 443.861 173.399 464.974 136.831" fill="#ffc800"/>
      <rect x="318.192" width="95.179" height="34.539" fill="#404041"/>
      <polygon points="365.782 264.95 342.796 229.113 388.768 229.113 365.782 264.95" fill="#404041"/>
    </g>
  </g>
</svg>
