<svg xmlns="http://www.w3.org/2000/svg" width="208.486" height="338" viewBox="0 0 208.486 338">
  <title>hotel1</title>
  <g>
    <path d="M51.1,312h-37V275h37Zm-33-4h29V279h-29Z" fill="#999"/>
    <path d="M98.768,82h-37V45h37Zm-33-4h29V49h-29Z" fill="#999"/>
    <g>
      <rect x="111.434" y="47" width="33" height="33" fill="#ffcb05"/>
      <path d="M146.434,82h-37V45h37Zm-33-4h29V49h-29Z" fill="#999"/>
    </g>
    <path d="M194.1,312h-37V275h37Zm-33-4h29V279h-29Z" fill="#999"/>
    <path d="M51.1,128h-37V91h37Zm-33-4h29V95h-29Z" fill="#999"/>
    <path d="M98.768,128h-37V91h37Zm-33-4h29V95h-29Z" fill="#999"/>
    <path d="M146.434,128h-37V91h37Zm-33-4h29V95h-29Z" fill="#999"/>
    <path d="M194.1,128h-37V91h37Zm-33-4h29V95h-29Z" fill="#999"/>
    <path d="M51.1,174h-37V137h37Zm-33-4h29V141h-29Z" fill="#999"/>
    <g>
      <rect x="63.767" y="139" width="33" height="33" fill="#ffcb05"/>
      <path d="M98.768,174h-37V137h37Zm-33-4h29V141h-29Z" fill="#999"/>
    </g>
    <path d="M146.434,174h-37V137h37Zm-33-4h29V141h-29Z" fill="#999"/>
    <path d="M194.1,174h-37V137h37Zm-33-4h29V141h-29Z" fill="#999"/>
    <path d="M51.1,220h-37V183h37Zm-33-4h29V187h-29Z" fill="#999"/>
    <path d="M98.768,220h-37V183h37Zm-33-4h29V187h-29Z" fill="#999"/>
    <path d="M146.434,220h-37V183h37Zm-33-4h29V187h-29Z" fill="#999"/>
    <g>
      <rect x="159.101" y="185" width="33" height="33" fill="#ffcb05"/>
      <path d="M194.1,220h-37V183h37Zm-33-4h29V187h-29Z" fill="#999"/>
    </g>
    <path d="M51.1,266h-37V229h37Zm-33-4h29V233h-29Z" fill="#999"/>
    <path d="M98.768,266h-37V229h37Zm-33-4h29V233h-29Z" fill="#999"/>
    <path d="M146.434,266h-37V229h37Zm-33-4h29V233h-29Z" fill="#999"/>
    <path d="M194.1,266h-37V229h37Zm-33-4h29V233h-29Z" fill="#999"/>
    <path d="M208.486,338H143.1V290a10.012,10.012,0,0,0-10-10h-58a10.011,10.011,0,0,0-10,10v48H.1L0,87.578,52.558,32H54.1l102.436.346,51.949,55.928ZM147.1,334h57.385V89.845l-49.7-53.5L54.279,36,4,89.17,4.1,334h57V290a14.015,14.015,0,0,1,14-14h58a14.016,14.016,0,0,1,14,14Z" fill="#999"/>
    <rect x="102.101" y="8" width="4" height="27" fill="#999"/>
    <path d="M104.1,12a6,6,0,1,1,6-6A6.006,6.006,0,0,1,104.1,12Zm0-8a2,2,0,1,0,2,2A2,2,0,0,0,104.1,4Z" fill="#999"/>
  </g>
</svg>
