<svg xmlns="http://www.w3.org/2000/svg" width="500" height="500" viewBox="0 0 500 500">
  <title>stage3</title>
  <g>
    <rect width="500" height="500" fill="#fff"/>
    <polygon points="96.718 282.28 54.906 282.28 34 318.49 54.906 354.7 96.718 354.7 117.624 318.49 96.718 282.28" fill="#e6e6e6"/>
    <path d="M94.409,208.066l18.6,32.21-18.6,32.21H57.215l-18.6-32.21,18.6-32.21H94.409m2.309-4H54.906L34,240.276l20.906,36.21H96.718l20.906-36.21-20.906-36.21Z" fill="#ffcb05"/>
    <path d="M94.409,130.576l18.6,32.21L94.409,195H57.215l-18.6-32.21,18.6-32.21H94.409m2.309-4H54.906L34,162.786,54.906,199H96.718l20.906-36.21-20.906-36.21Z" fill="#ffcb05"/>
    <polygon points="300.944 322.111 259.132 322.111 238.226 358.321 259.132 394.531 300.944 394.531 321.85 358.321 300.944 322.111" fill="#e6e6e6"/>
    <polygon points="300.944 243.897 259.132 243.897 238.226 280.107 259.132 316.317 300.944 316.317 321.85 280.107 300.944 243.897" fill="#e6e6e6"/>
    <polygon points="300.944 165.683 259.132 165.683 238.226 201.893 259.132 238.103 300.944 238.103 321.85 201.893 300.944 165.683" fill="#e6e6e6"/>
    <polygon points="300.944 87.683 259.132 87.683 238.226 123.893 259.132 160.103 300.944 160.103 321.85 123.893 300.944 87.683" fill="#e6e6e6"/>
    <polygon points="232.868 282.28 191.056 282.28 170.15 318.49 191.056 354.7 232.868 354.7 253.774 318.49 232.868 282.28" fill="#e6e6e6"/>
    <path d="M230.559,208.066l18.6,32.21-18.6,32.21H193.366l-18.6-32.21,18.6-32.21h37.193m2.309-4H191.056l-20.906,36.21,20.906,36.21h41.812l20.906-36.21-20.906-36.21Z" fill="#ffcb05"/>
    <polygon points="232.868 126.576 191.056 126.576 170.15 162.786 191.056 198.996 232.868 198.996 253.774 162.786 232.868 126.576" fill="#e6e6e6"/>
    <polygon points="437.094 322.111 395.282 322.111 374.376 358.321 395.282 394.531 437.094 394.531 458 358.321 437.094 322.111" fill="#e6e6e6"/>
    <path d="M434.785,247.9l18.6,32.21-18.6,32.21H397.591L379,280.107l18.6-32.21h37.194m2.309-4H395.282l-20.906,36.21,20.906,36.21h41.812L458,280.107,437.094,243.9Z" fill="#ffcb05"/>
    <path d="M434.785,169.683l18.6,32.21-18.6,32.21H397.591L379,201.893l18.6-32.21h37.194m2.309-4H395.282l-20.906,36.21,20.906,36.21h41.812L458,201.893l-20.906-36.21Z" fill="#ffcb05"/>
    <path d="M162.484,247.173l18.6,32.21-18.6,32.21H125.291l-18.6-32.21,18.6-32.21h37.193m2.309-4H122.981l-20.906,36.21,20.906,36.21h41.812l20.906-36.21-20.906-36.21Z" fill="#ffcb05"/>
    <path d="M162.484,168.959l18.6,32.21-18.6,32.21H125.291l-18.6-32.21,18.6-32.21h37.193m2.309-4H122.981l-20.906,36.21,20.906,36.21h41.812l20.906-36.21-20.906-36.21Z" fill="#ffcb05"/>
    <polygon points="164.793 87.469 122.981 87.469 102.075 123.679 122.981 159.889 164.793 159.889 185.699 123.679 164.793 87.469" fill="#e6e6e6"/>
    <polygon points="164.793 322.469 122.981 322.469 102.075 358.679 122.981 394.889 164.793 394.889 185.699 358.679 164.793 322.469" fill="#e6e6e6"/>
    <path d="M366.709,287l18.6,32.21-18.6,32.21H329.516l-18.6-32.21,18.6-32.21h37.193m2.31-4H327.207L306.3,319.214l20.906,36.21h41.812l20.906-36.21L369.019,283Z" fill="#ffcb05"/>
    <path d="M366.709,208.79l18.6,32.21-18.6,32.21H329.516L310.92,241l18.6-32.21h37.193m2.31-4H327.207L306.3,241l20.906,36.21h41.812L389.925,241l-20.906-36.21Z" fill="#ffcb05"/>
    <path d="M366.709,130.576l18.6,32.21L366.709,195H329.516l-18.6-32.21,18.6-32.21h37.193m2.31-4H327.207L306.3,162.786,327.207,199h41.812l20.906-36.21-20.906-36.21Z" fill="#ffcb05"/>
  </g>
</svg>
