<svg xmlns="http://www.w3.org/2000/svg" width="500" height="500" viewBox="0 0 500 500">
  <title>stage1</title>
  <g>
    <rect width="500" height="500" fill="#fff"/>
    <path d="M94.408,286.28l18.6,32.21-18.6,32.21H57.215l-18.6-32.21,18.6-32.21H94.408m2.31-4H54.906L34,318.49,54.906,354.7H96.718l20.906-36.21L96.718,282.28Z" fill="#ffcb05"/>
    <path d="M94.408,208.066l18.6,32.21-18.6,32.21H57.215l-18.6-32.21,18.6-32.21H94.408m2.31-4H54.906L34,240.276l20.906,36.21H96.718l20.906-36.21-20.906-36.21Z" fill="#ffcb05"/>
    <path d="M94.408,130.576l18.6,32.21L94.408,195H57.215l-18.6-32.21,18.6-32.21H94.408m2.31-4H54.906L34,162.786,54.906,199H96.718l20.906-36.21-20.906-36.21Z" fill="#ffcb05"/>
    <path d="M298.634,326.111l18.6,32.21-18.6,32.21H261.441l-18.6-32.21,18.6-32.21h37.193m2.309-4H259.132l-20.906,36.21,20.906,36.21h41.811l20.907-36.21-20.907-36.21Z" fill="#ffcb05"/>
    <path d="M298.634,247.9l18.6,32.21-18.6,32.21H261.441l-18.6-32.21,18.6-32.21h37.193m2.309-4H259.132l-20.906,36.21,20.906,36.21h41.811l20.907-36.21L300.943,243.9Z" fill="#ffcb05"/>
    <path d="M298.634,169.683l18.6,32.21-18.6,32.21H261.441l-18.6-32.21,18.6-32.21h37.193m2.309-4H259.132l-20.906,36.21,20.906,36.21h41.811l20.907-36.21-20.907-36.21Z" fill="#ffcb05"/>
    <path d="M298.634,91.683l18.6,32.21-18.6,32.21H261.441l-18.6-32.21,18.6-32.21h37.193m2.309-4H259.132l-20.906,36.21,20.906,36.21h41.811l20.907-36.21-20.907-36.21Z" fill="#ffcb05"/>
    <path d="M230.559,286.28l18.6,32.21-18.6,32.21H193.366l-18.6-32.21,18.6-32.21h37.193m2.309-4H191.057L170.15,318.49l20.907,36.21h41.811l20.906-36.21-20.906-36.21Z" fill="#ffcb05"/>
    <path d="M230.559,208.066l18.6,32.21-18.6,32.21H193.366l-18.6-32.21,18.6-32.21h37.193m2.309-4H191.057l-20.907,36.21,20.907,36.21h41.811l20.906-36.21-20.906-36.21Z" fill="#ffcb05"/>
    <path d="M230.559,130.576l18.6,32.21L230.559,195H193.366l-18.6-32.21,18.6-32.21h37.193m2.309-4H191.057l-20.907,36.21L191.057,199h41.811l20.906-36.21-20.906-36.21Z" fill="#ffcb05"/>
    <path d="M434.785,326.111l18.6,32.21-18.6,32.21H397.592L379,358.321l18.6-32.21h37.193m2.309-4H395.282l-20.906,36.21,20.906,36.21h41.812L458,358.321l-20.906-36.21Z" fill="#ffcb05"/>
    <path d="M434.785,247.9l18.6,32.21-18.6,32.21H397.592L379,280.107l18.6-32.21h37.193m2.309-4H395.282l-20.906,36.21,20.906,36.21h41.812L458,280.107,437.094,243.9Z" fill="#ffcb05"/>
    <path d="M434.785,169.683l18.6,32.21-18.6,32.21H397.592L379,201.893l18.6-32.21h37.193m2.309-4H395.282l-20.906,36.21,20.906,36.21h41.812L458,201.893l-20.906-36.21Z" fill="#ffcb05"/>
    <path d="M162.483,247.173l18.6,32.21-18.6,32.21H125.291l-18.6-32.21,18.6-32.21h37.192m2.31-4H122.981l-20.906,36.21,20.906,36.21h41.812l20.906-36.21-20.906-36.21Z" fill="#ffcb05"/>
    <path d="M162.483,168.959l18.6,32.21-18.6,32.21H125.291l-18.6-32.21,18.6-32.21h37.192m2.31-4H122.981l-20.906,36.21,20.906,36.21h41.812l20.906-36.21-20.906-36.21Z" fill="#ffcb05"/>
    <path d="M162.483,91.469l18.6,32.21-18.6,32.21H125.291l-18.6-32.21,18.6-32.21h37.192m2.31-4H122.981l-20.906,36.21,20.906,36.21h41.812l20.906-36.21-20.906-36.21Z" fill="#ffcb05"/>
    <path d="M162.483,326.469l18.6,32.21-18.6,32.21H125.291l-18.6-32.21,18.6-32.21h37.192m2.31-4H122.981l-20.906,36.21,20.906,36.21h41.812l20.906-36.21-20.906-36.21Z" fill="#ffcb05"/>
    <path d="M366.709,287l18.6,32.21-18.6,32.21H329.517l-18.6-32.21,18.6-32.21h37.192m2.31-4H327.207L306.3,319.214l20.906,36.21h41.812l20.906-36.21L369.019,283Z" fill="#ffcb05"/>
    <path d="M366.709,208.79l18.6,32.21-18.6,32.21H329.517L310.919,241l18.6-32.21h37.192m2.31-4H327.207L306.3,241l20.906,36.21h41.812L389.925,241l-20.906-36.21Z" fill="#ffcb05"/>
    <path d="M366.709,130.576l18.6,32.21L366.709,195H329.517l-18.6-32.21,18.6-32.21h37.192m2.31-4H327.207L306.3,162.786,327.207,199h41.812l20.906-36.21-20.906-36.21Z" fill="#ffcb05"/>
  </g>
</svg>
